# xmcd
#
# Track frame offsets: 
#        150
#        13015
#        24885
#        39700
#        54397
#        67075
#        85387
#        103707
#        121715
#        134122
#
# Disc length: 2064 seconds
#
# Revision: 2
# Processed by: cddbd v1.5PL3 Copyright (c) Steve Scherf et al.
# Submitted via: ExactAudioCopy v0.95a3
#
DISCID=85080e0a
DTITLE=Mark Collie - Born and Raised In Black And White
DYEAR=1991
DGENRE=Country
TTITLE0=She's Never Comin' Back
TTITLE1=When The Sun Goes Down
TTITLE2=It Don't Take A Lot
TTITLE3=Calloused Hands
TTITLE4=Ten Lonely Nights
TTITLE5=There Goes My Dream
TTITLE6=Born And Raised In Black And White
TTITLE7=Ballad Of Thunder Road
TTITLE8=Lucky Dog
TTITLE9=Johnny Was A Rebel
EXTD=
EXTT0=
EXTT1=
EXTT2=
EXTT3=
EXTT4=
EXTT5=
EXTT6=
EXTT7=
EXTT8=
EXTT9=
PLAYORDER=
